<?xml version="1.0" encoding="UTF-8" standalone="no"?>
<svg
   width="320"
   height="320"
   version="1.1"
   id="svg4"
   sodipodi:docname="favicon.svg"
   inkscape:version="1.2.2 (b0a8486, 2022-12-01)"
   xml:space="preserve"
   xmlns:inkscape="http://www.inkscape.org/namespaces/inkscape"
   xmlns:sodipodi="http://sodipodi.sourceforge.net/DTD/sodipodi-0.dtd"
   xmlns="http://www.w3.org/2000/svg"
   xmlns:svg="http://www.w3.org/2000/svg"><defs
     id="defs8" /><sodipodi:namedview
     id="namedview6"
     pagecolor="#ffffff"
     bordercolor="#000000"
     borderopacity="0.25"
     inkscape:showpageshadow="2"
     inkscape:pageopacity="0.0"
     inkscape:pagecheckerboard="0"
     inkscape:deskcolor="#d1d1d1"
     showgrid="false"
     showguides="true"
     inkscape:zoom="1.390625"
     inkscape:cx="53.573034"
     inkscape:cy="133.75281"
     inkscape:window-width="1658"
     inkscape:window-height="932"
     inkscape:window-x="0"
     inkscape:window-y="38"
     inkscape:window-maximized="0"
     inkscape:current-layer="svg4"><sodipodi:guide
       position="0.4765625,308.94141"
       orientation="1,0"
       id="guide2453"
       inkscape:locked="false" /><sodipodi:guide
       position="0.6171875,309.17188"
       orientation="0,-1"
       id="guide2455"
       inkscape:locked="false" /><sodipodi:guide
       position="1.796875,309.42188"
       orientation="1,0"
       id="guide2457"
       inkscape:locked="false" /><sodipodi:guide
       position="1.9648438,309.53906"
       orientation="0,-1"
       id="guide2459"
       inkscape:locked="false" /><sodipodi:guide
       position="23.527344,309.03906"
       orientation="1,0"
       id="guide2483"
       inkscape:locked="false" /><sodipodi:guide
       position="22.738281,309.55078"
       orientation="0,-1"
       id="guide2485"
       inkscape:locked="false" /><sodipodi:guide
       position="22.28125,309.41797"
       orientation="1,0"
       id="guide2487"
       inkscape:locked="false" /></sodipodi:namedview><path
     id="path2"
     style="fill:#194666;fill-opacity:1;stroke:#194666;stroke-width:7.80281;stroke-dasharray:none;stroke-opacity:1"
     d="m 160.652,33.854638 c -63.799376,0 -107.255292,12.938566 -113.333678,15.952963 -6.078382,3.014558 -14.512045,4.728241 -20.421369,9.423999 -5.828568,7.044902 -12.076014,6.053087 -17.1956949,6.19026 -2.3287475,0.0315 -4.7569818,1.088014 -5.4355646,2.432876 -2.0487564,4.086301 7.6715895,16.905346 12.8522625,16.938469 9.004308,0.07891 10.433521,3.907196 13.969884,37.387885 5.820112,55.15639 12.718964,85.43632 21.488273,94.14697 1.631177,1.63121 10.509467,6.05749 19.735505,9.82433 19.091643,7.80257 19.392832,8.40129 19.862707,41.36052 0.208071,14.44508 1.010453,18.63245 3.581342,18.63245 3.771369,0 4.823573,-4.8528 6.807163,-30.95131 l 1.39698,-18.47824 7.11186,1.94027 c 9.21304,2.52228 89.93607,2.53914 99.10995,0 l 7.06115,-1.90952 1.57473,24.66867 c 1.39631,21.72613 2.09739,24.73013 5.81647,24.73013 3.82363,0 4.24186,-2.2632 4.24186,-22.91318 0,-14.17588 1.07159,-24.5958 2.79393,-27.28633 1.53989,-2.38791 9.8275,-7.11066 18.44024,-10.44025 8.89975,-3.48082 17.80588,-8.98045 20.62464,-12.78072 7.21643,-9.71967 13.2705,-36.85541 18.51633,-82.99857 2.62303,-23.03792 5.7746,-41.535539 7.34061,-42.746379 1.48761,-1.176302 4.67376,-2.153613 7.03566,-2.186726 5.65053,-0.04746 12.47136,-7.852062 12.47136,-14.258985 0,-3.582054 -1.6464,-5.093448 -5.58798,-5.11236 -5.07534,-0.126015 -9.21407,0.94293 -16.35742,-6.405813 -5.88331,-6.560654 -29.46234,-15.533369 -50.82501,-19.587049 -16.38576,-2.607268 -33.88381,-5.57436 -82.67619,-5.57436 z m 4.06396,11.117816 c 34.62015,0.242828 68.38263,3.850427 90.32166,10.748209 17.32118,5.454198 22.48963,9.969731 19.07512,16.661261 -3.47367,6.844486 -19.13587,12.736892 -44.95757,16.907726 -75.23634,12.14559 -183.360866,0.812067 -183.360866,-19.248177 0,-6.554202 7.352455,-11.474036 23.393217,-15.614273 25.418675,-6.569333 60.908299,-9.697261 95.528439,-9.454746 z" /></svg>
