<svg xmlns="http://www.w3.org/2000/svg" xml:space="preserve" width="320" height="320">
  <circle 
    cx="160" 
    cy="160" 
    r="159.916" 
    style="fill:#194666;stroke:none;stroke-width:0;stroke-linecap:round;stroke-dasharray:none;stroke-opacity:1;fill-opacity:1"
  />
  <path 
    d="M160.469 72.348c-49.06 0-82.475 9.95-87.149 12.267-4.674 2.318-11.159 3.636-15.703 7.247-4.482 5.417-9.286 4.655-13.222 4.76-1.791.024-3.658.837-4.18 1.87-1.576 3.143 5.899 13 9.883 13.026 6.924.06 8.023 3.004 10.742 28.75 4.475 42.412 9.78 65.696 16.523 72.394 1.255 1.254 8.082 4.658 15.176 7.554 14.68 6 14.912 6.46 15.274 31.805.16 11.107.777 14.327 2.753 14.327 2.9 0 3.71-3.731 5.235-23.8l1.074-14.209 5.469 1.492c7.084 1.94 69.156 1.953 76.21 0l5.43-1.468 1.211 18.969c1.074 16.706 1.613 19.016 4.473 19.016 2.94 0 3.262-1.74 3.262-17.619 0-10.9.824-18.913 2.148-20.982 1.184-1.836 7.557-5.468 14.18-8.028 6.843-2.676 13.692-6.905 15.86-9.828 5.548-7.474 10.204-28.34 14.237-63.822 2.017-17.715 4.44-31.939 5.645-32.87 1.144-.904 3.594-1.656 5.41-1.681 4.345-.037 9.59-6.038 9.59-10.965 0-2.754-1.266-3.916-4.297-3.93-3.903-.098-7.085.724-12.578-4.927-4.524-5.045-22.655-11.944-39.082-15.061-12.6-2.005-26.055-4.287-63.574-4.287zm3.125 8.55c26.621.186 52.583 2.96 69.453 8.264 13.32 4.194 17.293 7.667 14.668 12.812-2.671 5.263-14.715 9.794-34.57 13.001-57.854 9.34-140.997.625-140.997-14.8 0-5.04 5.654-8.824 17.989-12.007 19.546-5.052 46.835-7.457 73.457-7.27z" 
    style="fill:#fff;stroke-width:11.3909"
  />
</svg>
