<svg 
  xmlns="http://www.w3.org/2000/svg" 
  xml:space="preserve" 
  width="320" 
  height="320"
>
  <path 
    d="M160.652 33.855c-63.8 0-107.255 12.938-113.334 15.953-6.078 3.014-14.512 4.728-20.421 9.424-5.829 7.045-12.076 6.053-17.196 6.19-2.328.031-4.757 1.088-5.435 2.433-2.05 4.086 7.671 16.905 12.852 16.938 9.004.08 10.433 3.907 13.97 37.388 5.82 55.156 12.719 85.436 21.488 94.147 1.631 1.631 10.51 6.058 19.736 9.824 19.091 7.803 19.392 8.402 19.862 41.36.208 14.446 1.01 18.633 3.582 18.633 3.771 0 4.823-4.852 6.807-30.95l1.397-18.48 7.112 1.941c9.213 2.522 89.936 2.54 99.11 0l7.06-1.91 1.575 24.67c1.397 21.725 2.098 24.73 5.817 24.73 3.824 0 4.242-2.264 4.242-22.914 0-14.176 1.071-24.596 2.794-27.286 1.54-2.388 9.827-7.11 18.44-10.44 8.9-3.481 17.806-8.98 20.625-12.781 7.216-9.72 13.27-36.856 18.516-82.999 2.623-23.038 5.775-41.535 7.34-42.746 1.488-1.176 4.674-2.154 7.036-2.187 5.65-.047 12.472-7.852 12.472-14.259 0-3.582-1.647-5.093-5.588-5.112-5.076-.126-9.214.943-16.358-6.406-5.883-6.56-29.462-15.533-50.825-19.587-16.386-2.607-33.884-5.574-82.676-5.574zm4.064 11.117c34.62.243 68.383 3.85 90.322 10.749 17.32 5.454 22.49 9.97 19.075 16.66-3.474 6.845-19.136 12.738-44.958 16.909-75.236 12.145-183.36.812-183.36-19.249 0-6.554 7.352-11.474 23.393-15.614 25.418-6.57 60.908-9.697 95.528-9.455z" 
    style="fill:#194666;fill-opacity:1;stroke:#194666;stroke-width:7.80281;stroke-dasharray:none;stroke-opacity:1"
  />
</svg>
