<?xml version="1.0" standalone="no"?>
<!DOCTYPE svg PUBLIC "-//W3C//DTD SVG 20010904//EN"
 "http://www.w3.org/TR/2001/REC-SVG-20010904/DTD/svg10.dtd">
<svg version="1.0" xmlns="http://www.w3.org/2000/svg"
 width="700.000000pt" height="700.000000pt" viewBox="0 0 700.000000 700.000000"
 preserveAspectRatio="xMidYMid meet">
<metadata>
Created by potrace 1.14, written by Peter Selinger 2001-2017
</metadata>
<g transform="translate(0.000000,700.000000) scale(0.100000,-0.100000)"
fill="#000000" stroke="none">
<path d="M3227 5414 c-1 -1 -60 -5 -132 -9 -236 -12 -575 -45 -700 -69 -11 -2
-42 -7 -69 -10 -27 -4 -52 -9 -55 -10 -3 -2 -26 -7 -51 -10 -25 -4 -52 -8 -60
-10 -8 -1 -33 -6 -55 -10 -159 -31 -473 -116 -500 -136 -5 -4 -64 -28 -131
-54 -128 -49 -192 -85 -246 -137 -59 -56 -88 -65 -228 -73 -102 -6 -129 -24
-120 -86 7 -57 112 -195 171 -225 15 -8 41 -15 57 -15 132 0 169 -101 217
-585 3 -33 8 -71 10 -85 3 -14 7 -56 10 -95 4 -38 8 -81 10 -95 3 -14 7 -45
10 -70 18 -143 27 -208 30 -230 2 -14 13 -83 25 -155 21 -137 27 -174 35 -215
3 -14 8 -36 10 -50 3 -14 12 -56 20 -95 9 -38 18 -83 21 -100 3 -16 10 -38 15
-47 5 -10 8 -18 5 -18 -9 0 62 -198 95 -264 18 -36 46 -79 61 -95 36 -36 159
-100 346 -180 215 -91 261 -127 295 -231 21 -62 26 -126 32 -345 8 -316 19
-423 43 -426 4 0 15 -2 24 -4 35 -7 58 45 77 170 11 66 14 105 26 255 3 36 7
88 10 115 6 66 18 234 19 263 0 26 6 27 72 8 27 -8 67 -17 89 -20 197 -28
1428 -29 1580 -1 65 12 131 28 148 37 13 7 17 5 18 -9 1 -10 2 -29 4 -43 1
-14 5 -75 9 -135 3 -61 8 -135 11 -165 2 -30 7 -98 10 -150 3 -52 8 -108 10
-125 2 -16 7 -52 10 -79 13 -103 50 -145 100 -112 14 9 25 20 26 24 0 4 3 16
5 27 3 11 7 110 9 220 6 307 14 437 32 505 3 14 7 32 9 40 7 40 112 104 307
189 314 136 382 202 462 446 26 80 87 330 100 415 4 25 9 54 11 65 17 87 50
305 59 390 3 28 8 57 10 65 2 8 7 44 10 80 4 36 9 73 10 82 2 9 7 48 10 85 4
37 8 79 11 93 2 14 7 48 10 75 3 28 12 91 19 140 8 50 17 110 20 135 4 25 10
63 15 85 5 22 12 56 15 75 13 79 26 101 69 121 22 10 56 19 74 19 96 0 213
129 215 237 1 67 -22 84 -119 89 -121 7 -157 22 -244 104 -160 151 -615 307
-1065 365 -141 18 -194 23 -395 40 -158 13 -311 17 -678 19 -216 1 -393 1
-395 0z m808 -198 c33 -3 94 -8 135 -11 125 -9 180 -15 305 -31 153 -20 175
-23 205 -29 14 -2 54 -10 90 -16 69 -13 245 -54 295 -69 330 -103 420 -184
342 -306 -55 -87 -307 -191 -577 -238 -14 -3 -50 -9 -80 -15 -30 -6 -68 -13
-85 -16 -56 -9 -250 -35 -300 -40 -27 -2 -75 -7 -105 -10 -226 -22 -411 -30
-760 -30 -296 0 -502 7 -650 20 -124 11 -177 16 -225 21 -58 6 -250 32 -280
38 -11 2 -41 6 -66 10 -78 11 -100 16 -228 47 -214 52 -366 117 -430 183 -68
70 -45 165 54 230 67 44 217 102 311 120 11 2 39 9 64 16 25 7 56 14 70 17 14
2 36 6 50 9 74 15 252 44 295 49 28 3 61 7 75 10 25 4 78 9 205 21 39 3 87 7
108 10 21 2 91 6 155 9 64 4 118 8 120 10 6 5 843 -3 907 -9z"/>
</g>
</svg>
