<?xml version="1.0" standalone="no"?>
<!DOCTYPE svg PUBLIC "-//W3C//DTD SVG 20010904//EN"
 "http://www.w3.org/TR/2001/REC-SVG-20010904/DTD/svg10.dtd">
<svg version="1.0" xmlns="http://www.w3.org/2000/svg"
 width="700.000000pt" height="700.000000pt" viewBox="0 0 700.000000 700.000000"
 preserveAspectRatio="xMidYMid meet">
<metadata>
Created by potrace 1.14, written by Peter Selinger 2001-2017
</metadata>
<g transform="translate(0.000000,700.000000) scale(0.100000,-0.100000)"
fill="#000000" stroke="none">
<path d="M3335 6409 c-383 -31 -763 -151 -1105 -347 -190 -109 -397 -268 -560
-432 -208 -207 -359 -419 -490 -685 -148 -299 -224 -556 -270 -909 -11 -87
-27 -173 -34 -191 -12 -28 -19 -33 -64 -39 -137 -18 -136 -114 2 -244 67 -62
96 -76 187 -87 108 -13 122 -56 194 -565 90 -634 167 -960 277 -1172 74 -142
105 -162 445 -284 113 -40 224 -85 245 -99 83 -55 96 -106 108 -430 6 -159 13
-254 23 -280 27 -78 108 -82 146 -6 23 45 45 177 66 391 8 91 18 186 21 211
l5 46 62 -13 c100 -22 420 -34 922 -34 510 0 818 12 913 34 l60 14 6 -57 c3
-31 13 -144 21 -251 25 -309 40 -370 98 -389 49 -16 89 -1 110 41 15 31 19 79
27 310 9 267 15 321 39 366 15 28 140 88 311 147 181 62 312 128 371 186 136
133 236 482 344 1204 38 252 75 452 101 546 18 65 33 75 122 85 69 8 124 34
175 83 68 64 95 148 66 203 -14 27 -68 48 -123 48 -32 0 -46 5 -50 17 -4 9
-11 94 -16 187 -9 176 -33 323 -76 474 -91 319 -270 675 -461 915 -370 465
-866 793 -1407 932 -281 72 -543 96 -811 74z m410 -179 c746 -85 1422 -493
1814 -1095 124 -191 230 -423 284 -625 59 -217 112 -525 105 -608 l-3 -43 -55
39 c-111 79 -267 139 -545 210 -510 130 -768 152 -1770 152 -1016 0 -1431 -29
-1841 -129 -239 -59 -503 -160 -590 -226 -18 -14 -35 -25 -38 -25 -16 0 3 279
29 435 21 123 67 284 121 418 323 805 1138 1410 2024 1500 80 8 382 6 465 -3z
m245 -2160 c635 -27 1108 -88 1453 -186 160 -46 277 -110 277 -151 0 -76 -134
-151 -377 -212 -844 -211 -2594 -226 -3556 -30 -305 62 -487 144 -487 220 0
39 43 85 109 118 336 170 1561 284 2581 241z"/>
</g>
</svg>
