<?xml version="1.0" standalone="no"?>
<!DOCTYPE svg PUBLIC "-//W3C//DTD SVG 20010904//EN"
 "http://www.w3.org/TR/2001/REC-SVG-20010904/DTD/svg10.dtd">
<svg version="1.0" xmlns="http://www.w3.org/2000/svg"
 width="700.000000pt" height="700.000000pt" viewBox="0 0 700.000000 700.000000"
 preserveAspectRatio="xMidYMid meet">
<metadata>
Created by potrace 1.14, written by Peter Selinger 2001-2017
</metadata>
<g transform="translate(0.000000,700.000000) scale(0.100000,-0.100000)"
fill="#000000" stroke="none">
<path d="M3257 6344 c-1 -1 -76 -5 -167 -8 -91 -4 -187 -8 -215 -11 -27 -2
-86 -7 -130 -10 -91 -6 -172 -13 -230 -20 -22 -2 -67 -7 -100 -10 -33 -3 -73
-8 -90 -10 -16 -2 -86 -11 -154 -20 -69 -9 -127 -18 -130 -19 -3 -2 -28 -6
-56 -10 -27 -3 -60 -8 -71 -10 -12 -2 -39 -7 -60 -10 -261 -41 -797 -178 -849
-216 -5 -4 -66 -29 -135 -55 -177 -66 -286 -122 -350 -180 -96 -88 -108 -93
-260 -100 -52 -3 -110 -9 -129 -14 -46 -14 -101 -58 -116 -95 -38 -90 34 -256
167 -382 74 -71 117 -94 185 -101 71 -7 95 -21 118 -68 17 -38 52 -186 60
-260 2 -22 7 -58 10 -80 12 -72 14 -89 20 -150 3 -33 8 -73 10 -90 2 -16 6
-55 9 -85 8 -78 36 -328 42 -375 3 -22 7 -53 9 -70 3 -16 11 -82 19 -145 9
-63 18 -135 21 -160 24 -179 99 -591 130 -711 8 -30 16 -64 18 -75 18 -95 103
-338 154 -437 85 -165 152 -209 598 -397 100 -42 216 -104 243 -130 42 -39 68
-100 77 -176 4 -33 9 -68 11 -79 2 -11 6 -99 9 -195 16 -551 17 -560 47 -632
36 -85 126 -116 202 -69 78 48 112 187 141 571 3 41 8 95 10 120 3 25 7 77 10
115 8 121 17 220 20 223 2 2 20 -1 41 -7 121 -32 416 -44 1109 -45 491 0 797
6 945 19 74 7 184 23 204 31 9 3 17 2 17 -2 5 -32 7 -61 13 -159 4 -60 9 -137
11 -170 2 -33 7 -100 10 -150 23 -360 44 -466 102 -527 24 -25 38 -31 106 -42
54 -9 124 37 146 97 24 62 27 116 36 542 3 149 8 286 10 305 3 19 7 55 10 80
13 99 22 118 80 155 73 46 185 102 325 160 187 79 344 173 431 258 70 69 148
225 199 399 11 40 23 80 26 88 11 37 65 269 70 300 3 19 7 43 10 52 6 20 11
44 18 94 6 38 15 88 22 129 2 11 11 63 19 115 9 52 18 106 20 120 4 26 11 77
20 145 3 22 7 56 10 75 2 19 7 58 10 85 3 28 8 61 10 75 3 14 7 48 10 75 3 28
7 66 10 85 2 19 6 58 9 85 3 28 10 84 16 125 5 41 12 95 15 120 6 51 33 239
41 285 3 17 7 42 9 57 5 40 24 133 41 210 17 74 18 74 109 87 119 17 212 80
287 195 104 161 83 334 -48 385 -17 7 -71 14 -120 15 -49 2 -102 7 -119 11
-37 10 -100 52 -140 95 -65 70 -205 152 -416 244 -157 69 -569 185 -779 221
-165 28 -186 31 -260 40 -57 7 -78 10 -145 19 -22 3 -71 8 -110 11 -38 3 -88
8 -110 10 -40 4 -184 14 -285 20 -214 13 -1134 27 -1143 19z m868 -427 c33 -3
103 -8 155 -12 52 -4 113 -8 135 -10 94 -8 171 -16 199 -20 17 -2 58 -7 91
-10 508 -54 1030 -192 1183 -313 45 -36 51 -56 28 -101 -57 -110 -455 -251
-891 -316 -19 -2 -39 -5 -170 -25 -33 -5 -82 -12 -110 -15 -27 -3 -63 -8 -80
-10 -16 -2 -61 -7 -100 -10 -38 -3 -83 -8 -100 -10 -16 -2 -68 -7 -115 -10
-47 -3 -107 -8 -135 -10 -330 -24 -1203 -25 -1415 0 -19 2 -78 6 -130 9 -52 3
-113 8 -135 10 -22 3 -67 8 -100 11 -93 8 -269 29 -335 40 -22 4 -104 16 -195
31 -16 2 -50 9 -75 14 -25 5 -56 12 -70 14 -131 21 -384 98 -494 150 -205 95
-228 173 -83 267 33 21 95 52 138 69 73 28 343 102 414 114 17 2 55 10 85 16
30 6 66 13 80 15 14 2 36 6 50 9 14 3 41 8 60 10 19 3 100 14 180 25 80 11
179 23 220 26 41 4 82 8 90 10 9 2 65 6 125 10 61 4 117 9 125 10 8 2 85 6
170 10 85 4 157 8 159 10 5 5 977 -3 1046 -8z"/>
</g>
</svg>
