<?xml version="1.0" encoding="UTF-8" standalone="no"?>
<svg
   width="320"
   height="320"
   version="1.1"
   id="svg4"
   sodipodi:docname="favicon.svg"
   inkscape:version="1.2.2 (b0a8486, 2022-12-01)"
   xml:space="preserve"
   xmlns:inkscape="http://www.inkscape.org/namespaces/inkscape"
   xmlns:sodipodi="http://sodipodi.sourceforge.net/DTD/sodipodi-0.dtd"
   xmlns="http://www.w3.org/2000/svg"
   xmlns:svg="http://www.w3.org/2000/svg"><defs
     id="defs8" /><sodipodi:namedview
     id="namedview6"
     pagecolor="#ffffff"
     bordercolor="#000000"
     borderopacity="0.25"
     inkscape:showpageshadow="2"
     inkscape:pageopacity="0.0"
     inkscape:pagecheckerboard="0"
     inkscape:deskcolor="#d1d1d1"
     showgrid="false"
     showguides="true"
     inkscape:zoom="1.390625"
     inkscape:cx="173.66292"
     inkscape:cy="186.96629"
     inkscape:window-width="1658"
     inkscape:window-height="932"
     inkscape:window-x="0"
     inkscape:window-y="38"
     inkscape:window-maximized="0"
     inkscape:current-layer="svg4"><sodipodi:guide
       position="0.4765625,308.94141"
       orientation="1,0"
       id="guide2453"
       inkscape:locked="false" /><sodipodi:guide
       position="0.6171875,309.17188"
       orientation="0,-1"
       id="guide2455"
       inkscape:locked="false" /><sodipodi:guide
       position="1.796875,309.42188"
       orientation="1,0"
       id="guide2457"
       inkscape:locked="false" /><sodipodi:guide
       position="1.9648438,309.53906"
       orientation="0,-1"
       id="guide2459"
       inkscape:locked="false" /><sodipodi:guide
       position="23.527344,309.03906"
       orientation="1,0"
       id="guide2483"
       inkscape:locked="false" /><sodipodi:guide
       position="22.738281,309.55078"
       orientation="0,-1"
       id="guide2485"
       inkscape:locked="false" /><sodipodi:guide
       position="22.28125,309.41797"
       orientation="1,0"
       id="guide2487"
       inkscape:locked="false" /></sodipodi:namedview><circle
     style="fill:#0f4a2b;stroke:none;stroke-width:0;stroke-linecap:round;stroke-dasharray:none;stroke-opacity:1;fill-opacity:1"
     id="path2944"
     cx="160"
     cy="160"
     r="159.91556" /><path
     id="path2"
     style="fill:#ffffff;stroke-width:11.3909"
     d="m 160.4687,72.348316 c -49.05879,0 -82.474398,9.949163 -87.148398,12.267097 -4.673997,2.318056 -11.159097,3.6358 -15.703096,7.246622 -4.481901,5.41721 -9.285901,4.65455 -13.2227,4.76003 -1.7907,0.0242 -3.657901,0.83663 -4.1797,1.870769 -1.5754,3.142176 5.8991,12.999436 9.8828,13.024906 6.9239,0.0607 8.022899,3.00445 10.7422,28.74957 4.475399,42.41273 9.7803,65.69661 16.523496,72.39469 1.2543,1.25433 8.0813,4.65794 15.1757,7.55447 14.680598,5.99981 14.912198,6.4602 15.273508,31.80434 0.16,11.1076 0.77699,14.3275 2.75389,14.3275 2.90001,0 3.70911,-3.73158 5.2344,-23.80014 l 1.07421,-14.20892 5.46869,1.49198 c 7.0844,1.93951 69.15671,1.95248 76.211,0 l 5.4297,-1.46834 1.2109,18.96908 c 1.0737,16.7064 1.6128,19.01634 4.4726,19.01634 2.9402,0 3.2618,-1.7403 3.2618,-17.61919 0,-10.9006 0.824,-18.91304 2.1484,-20.98193 1.1841,-1.8362 7.5569,-5.46777 14.1797,-8.02808 6.8435,-2.67659 13.6919,-6.90555 15.8594,-9.82779 5.5491,-7.47397 10.2044,-28.34011 14.23821,-63.82209 2.01699,-17.7151 4.4404,-31.93892 5.64459,-32.87 1.1439,-0.90452 3.59391,-1.65603 5.4101,-1.68149 4.345,-0.0365 9.5899,-6.03788 9.5899,-10.96451 0,-2.754436 -1.266,-3.916625 -4.2969,-3.931165 -3.9027,-0.0969 -7.0852,0.72507 -12.5781,-4.92578 -4.524,-5.044842 -22.65519,-11.944448 -39.0821,-15.061542 -12.5999,-2.004869 -26.0551,-4.286427 -63.5742,-4.286427 z m 3.125,8.54909 c 26.6213,0.186724 52.5831,2.960802 69.45321,8.26488 13.31919,4.194029 17.29349,7.666269 14.66789,12.811744 -2.67109,5.2631 -14.7146,9.79409 -34.5703,13.00127 -57.8533,9.3394 -140.996098,0.62444 -140.996098,-14.80097 0,-5.039875 5.6537,-8.823005 17.98831,-12.006658 19.545798,-5.051515 46.835688,-7.456749 73.456988,-7.270266 z" /></svg>
